<svg xmlns="http://www.w3.org/2000/svg" xmlns:xlink="http://www.w3.org/1999/xlink" width="500" zoomAndPan="magnify" viewBox="0 0 375 374.999991" height="500" preserveAspectRatio="xMidYMid meet" version="1.0"><rect x="-37.5" width="450" fill="#ffffff" y="-37.499999" height="449.999989" fill-opacity="1"/><rect x="-37.5" width="450" fill="#ffffff" y="-37.499999" height="449.999989" fill-opacity="1"/><path stroke-linecap="butt" transform="matrix(0.0697233, 0.377401, -0.374879, 0.0701924, 261.345016, 49.063994)" fill-opacity="1" fill="#ffcc00" fill-rule="nonzero" stroke-linejoin="miter" d="M 201.377133 346.181889 L 356.509813 375.003563 L 409.118474 523.770533 L 306.584451 643.71397 L 151.441768 614.890436 L 98.843111 466.125326 Z M 201.377133 346.181889 " stroke="#000000" stroke-width="1" stroke-opacity="1" stroke-miterlimit="4"/><path fill="#212529" d="M 90.269531 117.773438 C 87.488281 118.46875 84.007812 120.335938 65.039062 131.359375 C 42.078125 144.726562 40.722656 145.679688 38.636719 149.742188 C 36.695312 153.589844 36.621094 154.542969 36.621094 180.175781 C 36.621094 194.898438 36.769531 204.675781 37.023438 206.175781 C 37.5 209.179688 39.441406 212.878906 41.675781 215.074219 C 43.652344 217.015625 84.519531 241.332031 87.890625 242.542969 C 90.894531 243.640625 95.433594 243.566406 98.328125 242.394531 C 100.304688 241.589844 118.101562 231.296875 135.789062 220.75 C 144.285156 215.660156 146.191406 213.832031 148.023438 208.703125 C 148.863281 206.359375 148.863281 206.359375 148.972656 182.554688 C 149.121094 156.519531 148.972656 154.359375 147.214844 150.621094 C 145.457031 146.851562 143.078125 144.691406 136.230469 140.625 C 104.882812 122.09375 98.988281 118.726562 97.410156 118.25 C 95.910156 117.808594 91.332031 117.515625 90.269531 117.773438 Z M 96.679688 124.621094 C 98.402344 125.355469 110.265625 132.238281 133.484375 145.933594 C 138.867188 149.15625 140.734375 150.734375 142.125 153.441406 L 143.003906 155.089844 L 143.003906 205.992188 L 142.164062 207.714844 C 141.6875 208.667969 140.660156 210.058594 139.890625 210.828125 C 138.425781 212.292969 98.511719 235.914062 96.019531 236.792969 C 93.898438 237.5625 91.261719 237.414062 89.171875 236.425781 C 85.949219 234.960938 48.488281 212.878906 46.546875 211.339844 C 45.851562 210.828125 44.789062 209.472656 44.164062 208.375 L 43.03125 206.359375 L 43.03125 180.359375 C 43.03125 154.46875 43.03125 154.359375 43.800781 152.894531 C 44.238281 152.085938 45.152344 150.84375 45.851562 150.148438 C 47.167969 148.828125 87.304688 125.132812 89.683594 124.292969 C 91.734375 123.558594 94.410156 123.707031 96.679688 124.621094 Z M 96.679688 124.621094 " fill-opacity="1" fill-rule="nonzero"/><path fill="#212529" d="M 86.609375 141.136719 C 85.621094 142.125 85.398438 143.738281 86.167969 144.761719 C 86.390625 145.128906 87.488281 145.640625 88.550781 145.898438 C 92.101562 146.851562 94.996094 149.15625 96.351562 152.125 C 96.753906 152.964844 97.308594 153.359375 96.90625 153.617188 C 96.578125 153.835938 97.257812 153.800781 97.113281 153.542969 C 96.269531 152.152344 89.722656 159.105469 89.722656 161.5625 C 89.722656 162.035156 89.613281 161.5 89.503906 161.5 C 89.390625 161.5 88.367188 160.65625 87.230469 159.632812 C 83.167969 156.042969 76.171875 153.40625 72.035156 153.953125 C 67.859375 154.539062 64.5625 156.957031 63.683594 160.105469 C 62.367188 165.085938 65.882812 172.007812 71.851562 176 C 73.316406 176.988281 74.597656 177.832031 74.632812 177.867188 C 74.707031 177.90625 74.085938 178.785156 73.242188 179.847656 C 71.226562 182.410156 69.433594 186 68.226562 189.953125 C 67.382812 192.773438 67.273438 193.796875 67.273438 198.121094 C 67.273438 204.125 68.003906 207.238281 70.570312 212.402344 C 72.105469 215.441406 72.4375 215.882812 73.242188 215.84375 C 74.449219 215.769531 83.238281 214.050781 86.976562 213.097656 C 92.980469 211.597656 99.171875 207.75 103.050781 203.027344 C 108.289062 196.691406 110.523438 188.121094 108.253906 183.25 L 107.375 181.382812 L 110.011719 180.613281 C 115.285156 179.039062 118.285156 175.453125 118.285156 170.691406 C 118.285156 164.0625 113.671875 156.480469 107.921875 153.625 C 106.457031 152.929688 104.480469 152.234375 103.453125 152.085938 L 101.625 151.867188 L 100.414062 149.339844 C 98.21875 144.835938 93.492188 141.101562 89.097656 140.441406 C 87.746094 140.222656 87.414062 140.332031 86.609375 141.136719 Z M 104.371094 158.09375 C 108.65625 159.484375 112.792969 165.015625 113.085938 169.703125 C 113.230469 171.714844 113.121094 172.082031 112.28125 173.109375 C 110.414062 175.304688 106.199219 176.257812 102.722656 175.230469 C 97.523438 173.730469 94.371094 169.847656 94.371094 164.976562 C 94.371094 162.488281 94.921875 161.132812 96.753906 159.410156 C 98.875 157.359375 101 156.996094 104.371094 158.09375 Z M 77.085938 159.996094 C 81.773438 161.644531 86.242188 165.601562 91.148438 172.484375 C 93.492188 175.78125 93.601562 175.964844 92.871094 176.292969 C 91.808594 176.695312 85.582031 176.292969 83.128906 175.597656 C 75.550781 173.546875 68.847656 167.542969 68.847656 162.742188 C 68.847656 159.558594 72.4375 158.347656 77.085938 159.996094 Z M 82.945312 181.089844 C 86.570312 181.933594 91.078125 182.117188 94.226562 181.53125 L 97.046875 181.054688 L 100.269531 183.433594 L 103.453125 185.851562 L 103.417969 188.78125 C 103.382812 190.832031 103.160156 192.332031 102.613281 193.761719 C 101.109375 197.570312 101.660156 197.605469 94.628906 193.285156 C 91.222656 191.199219 85.914062 188.050781 82.875 186.253906 C 79.796875 184.496094 77.269531 182.921875 77.269531 182.8125 C 77.269531 182.191406 79.6875 180.175781 80.199219 180.359375 C 80.492188 180.503906 81.738281 180.835938 82.945312 181.089844 Z M 79.359375 191.308594 C 82.140625 192.992188 87.15625 195.996094 90.5625 197.972656 C 93.933594 199.953125 96.679688 201.671875 96.679688 201.78125 C 96.679688 201.890625 95.910156 202.589844 94.957031 203.320312 C 91.589844 205.8125 92.210938 205.847656 86.9375 202.882812 C 77.378906 197.425781 72.691406 194.75 72.398438 194.496094 C 72.179688 194.273438 73.902344 188.234375 74.195312 188.234375 C 74.230469 188.234375 76.574219 189.625 79.359375 191.308594 Z M 76.902344 203.246094 C 78.808594 204.601562 81.296875 206.175781 82.398438 206.761719 C 84.851562 208.042969 84.777344 207.972656 84.484375 208.226562 C 84.265625 208.445312 76.867188 209.800781 75.769531 209.839844 C 74.816406 209.839844 72.546875 203.539062 72.507812 200.757812 C 72.507812 200.171875 72.546875 200.171875 76.902344 203.246094 Z M 76.902344 203.246094 " fill-opacity="1" fill-rule="nonzero"/><path fill="#212529" d="M 103.382812 162.414062 C 101.292969 163.292969 100.78125 165.636719 102.355469 167.175781 C 105.066406 169.886719 109.421875 166.039062 106.859375 163.183594 C 105.761719 162.011719 104.808594 161.792969 103.382812 162.414062 Z M 103.382812 162.414062 " fill-opacity="1" fill-rule="nonzero"/><path fill="#facc00" d="M 168.382812 159.300781 L 168.273438 180.542969 L 175.414062 180.542969 L 175.414062 177.613281 L 177.097656 178.710938 C 179.882812 180.46875 182.078125 181.019531 185.339844 180.835938 C 190.503906 180.542969 194.75 177.648438 196.949219 172.925781 C 197.863281 170.984375 197.9375 170.507812 197.9375 165.894531 C 197.898438 161.644531 197.789062 160.65625 197.09375 158.898438 C 194.933594 153.480469 189.222656 150.109375 183.03125 150.621094 C 180.542969 150.84375 177.648438 151.867188 176.441406 152.964844 C 176.074219 153.296875 175.78125 153.40625 175.78125 153.222656 C 175.78125 153.039062 175.707031 149.597656 175.671875 145.570312 L 175.597656 138.246094 L 172.046875 138.132812 L 168.457031 138.023438 Z M 187.058594 158.3125 C 189.109375 159.667969 190.136719 161.753906 190.355469 165.015625 C 190.722656 170.800781 187.609375 174.71875 182.59375 174.683594 C 178.527344 174.644531 175.816406 171.824219 175.230469 166.992188 C 174.753906 162.964844 176.292969 159.300781 179.148438 157.875 C 181.421875 156.703125 184.972656 156.921875 187.058594 158.3125 Z M 187.058594 158.3125 " fill-opacity="1" fill-rule="nonzero"/><path fill="#facc00" d="M 211.632812 150.988281 C 206.652344 152.417969 202.878906 156.554688 201.746094 161.902344 C 201.527344 162.964844 201.414062 165.308594 201.488281 167.210938 C 201.820312 173.070312 204.457031 177.246094 209.363281 179.554688 C 212.476562 180.980469 217.601562 181.347656 221.046875 180.359375 C 223.351562 179.699219 226.023438 178.199219 227.378906 176.769531 L 228.1875 175.890625 L 225.878906 173.65625 C 223.71875 171.570312 223.570312 171.496094 223.097656 172.15625 C 222.839844 172.523438 221.886719 173.253906 221.007812 173.804688 C 218.117188 175.488281 213.832031 175.339844 211.488281 173.511719 C 210.386719 172.667969 209.144531 170.214844 209.105469 168.894531 L 209.105469 168.089844 L 229.320312 168.089844 L 229.175781 164.136719 C 229.066406 160.804688 228.882812 159.886719 228.003906 157.910156 C 226.722656 155.125 223.828125 152.34375 221.300781 151.429688 C 218.992188 150.621094 213.792969 150.367188 211.632812 150.988281 Z M 219.066406 157.324219 C 219.582031 157.582031 220.386719 158.238281 220.789062 158.789062 C 221.519531 159.703125 222.4375 162.230469 222.144531 162.523438 C 222.070312 162.597656 219.105469 162.671875 215.550781 162.707031 C 208.335938 162.78125 208.558594 162.890625 209.875 160.144531 C 211.488281 156.847656 215.625 155.566406 219.066406 157.324219 Z M 219.066406 157.324219 " fill-opacity="1" fill-rule="nonzero"/><path fill="#facc00" d="M 243.128906 150.988281 C 239.171875 152.125 235.402344 155.492188 233.972656 159.226562 C 232.875 162.121094 232.617188 167.46875 233.421875 170.652344 C 234.632812 175.414062 237.890625 178.820312 242.503906 180.210938 C 244.628906 180.871094 245.691406 180.980469 248.695312 180.835938 C 251.808594 180.6875 252.613281 180.503906 254.589844 179.515625 C 256.933594 178.34375 257.921875 177.613281 258.875 176.402344 C 259.351562 175.816406 259.203125 175.523438 257.261719 173.582031 L 255.140625 171.421875 L 253.527344 172.851562 C 248.949219 176.84375 241.441406 174.9375 240.710938 169.628906 L 240.492188 168.089844 L 260.707031 168.089844 L 260.816406 166.699219 C 261.035156 164.027344 260.449219 160.070312 259.496094 158.019531 C 258.25 155.273438 255.46875 152.601562 252.796875 151.609375 C 250.195312 150.621094 245.507812 150.328125 243.128906 150.988281 Z M 250.488281 157.289062 C 251 157.542969 251.695312 158.09375 252.0625 158.496094 C 252.796875 159.300781 253.894531 162.5625 253.492188 162.671875 C 253.34375 162.707031 250.378906 162.742188 246.898438 162.742188 L 240.5625 162.78125 L 240.746094 161.683594 C 241.222656 159.484375 243.164062 157.507812 245.65625 156.738281 C 246.828125 156.371094 249.207031 156.628906 250.488281 157.289062 Z M 250.488281 157.289062 " fill-opacity="1" fill-rule="nonzero"/><path fill="#212529" d="M 318.75 186.035156 C 316.257812 187.023438 315.5625 190.941406 317.433594 193.03125 C 318.3125 194.019531 318.824219 194.238281 320.472656 194.382812 C 322.230469 194.53125 322.632812 194.421875 323.621094 193.578125 C 325.964844 191.601562 325.964844 188.523438 323.695312 186.585938 C 322.523438 185.632812 320.363281 185.375 318.75 186.035156 Z M 318.75 186.035156 " fill-opacity="1" fill-rule="nonzero"/><path fill="#212529" d="M 176.148438 186.363281 C 171.679688 187.71875 169.554688 190.980469 169.554688 196.363281 L 169.554688 198.851562 L 164.792969 198.851562 L 164.792969 204.710938 L 169.554688 204.710938 L 169.554688 226.683594 L 176.878906 226.683594 L 176.878906 204.75 L 180.210938 204.636719 L 183.542969 204.527344 L 183.582031 201.671875 L 183.65625 198.851562 L 176.878906 198.851562 L 176.878906 197.203125 C 176.878906 194.53125 177.648438 193.101562 179.40625 192.625 C 180.210938 192.40625 181.53125 192.332031 182.335938 192.480469 L 183.839844 192.738281 L 183.839844 189.734375 C 183.839844 186.878906 183.800781 186.730469 182.886719 186.402344 C 181.824219 185.960938 177.503906 185.960938 176.148438 186.363281 Z M 176.148438 186.363281 " fill-opacity="1" fill-rule="nonzero"/><path fill="#212529" d="M 190.539062 186.546875 C 188.304688 187.535156 187.351562 190.171875 188.414062 192.40625 C 189.222656 194.054688 190.613281 194.824219 192.847656 194.824219 C 194.273438 194.824219 194.714844 194.640625 195.777344 193.578125 C 196.800781 192.554688 197.019531 192.039062 197.019531 190.796875 C 197.019531 189.148438 196.253906 187.5 195.152344 186.839844 C 194.019531 186.144531 191.785156 186 190.539062 186.546875 Z M 190.539062 186.546875 " fill-opacity="1" fill-rule="nonzero"/><path fill="#212529" d="M 254.148438 194.273438 L 254.148438 198.851562 L 249.207031 198.851562 L 249.28125 201.671875 L 249.316406 204.527344 L 251.734375 204.636719 L 254.148438 204.75 L 254.148438 213.171875 C 254.148438 219.945312 254.261719 221.851562 254.699219 222.949219 C 255.394531 224.558594 256.53125 225.84375 257.921875 226.574219 C 259.386719 227.308594 263.488281 227.601562 265.980469 227.085938 C 268.285156 226.574219 268.25 226.683594 267.847656 223.207031 L 267.625 221.375 L 265.0625 221.375 C 261.402344 221.375 261.472656 221.558594 261.472656 212.328125 L 261.472656 204.75 L 264.695312 204.640625 L 267.882812 204.527344 L 267.992188 201.671875 L 268.101562 198.851562 L 261.472656 198.851562 L 261.472656 189.695312 L 254.148438 189.695312 Z M 254.148438 194.273438 " fill-opacity="1" fill-rule="nonzero"/><path fill="#212529" d="M 215.953125 198.375 C 214.964844 198.707031 213.355469 199.730469 212.328125 200.648438 L 210.460938 202.332031 L 210.644531 200.574219 L 210.863281 198.851562 L 203.246094 198.851562 L 203.246094 226.683594 L 210.753906 226.683594 L 210.753906 217.933594 C 210.753906 209.65625 210.789062 209.105469 211.523438 208.152344 C 213.097656 206.03125 214.011719 205.628906 217.382812 205.628906 L 220.496094 205.628906 L 220.386719 201.78125 L 220.277344 197.9375 L 218.992188 197.863281 C 218.296875 197.828125 216.90625 198.046875 215.953125 198.375 Z M 215.953125 198.375 " fill-opacity="1" fill-rule="nonzero"/><path fill="#212529" d="M 230.164062 198.375 C 225.988281 199.878906 223.972656 202.515625 223.972656 206.507812 C 223.902344 211.414062 226.722656 213.832031 233.933594 215.148438 C 238.183594 215.953125 239.648438 216.832031 239.792969 218.699219 C 239.867188 219.761719 239.722656 220.164062 238.953125 220.789062 C 237.707031 221.742188 235.949219 222.070312 233.753906 221.742188 C 232.433594 221.558594 231.703125 221.15625 230.675781 220.164062 C 229.945312 219.398438 229.285156 218.628906 229.210938 218.371094 C 229.101562 218.042969 228.257812 218.113281 225.953125 218.699219 C 224.230469 219.140625 222.800781 219.507812 222.730469 219.582031 C 222.363281 219.835938 224.265625 222.730469 225.660156 224.011719 C 228.1875 226.316406 230.859375 227.195312 235.472656 227.195312 C 239.171875 227.234375 239.429688 227.195312 241.882812 225.953125 C 243.75 225 244.738281 224.230469 245.542969 223.09375 C 246.53125 221.628906 246.644531 221.226562 246.644531 218.445312 C 246.644531 215.660156 246.570312 215.257812 245.542969 213.832031 C 244.117188 211.78125 241.992188 210.753906 237.671875 209.984375 C 231.847656 208.960938 230.125 207.824219 230.894531 205.445312 C 231.8125 202.585938 237.925781 202.625 239.207031 205.480469 C 239.464844 206.066406 239.832031 206.542969 240.050781 206.542969 C 240.636719 206.542969 245.765625 205.152344 245.984375 204.96875 C 246.058594 204.859375 245.835938 204.164062 245.433594 203.355469 C 243.640625 199.839844 240.417969 198.082031 235.328125 197.863281 C 232.761719 197.753906 231.554688 197.898438 230.164062 198.375 Z M 230.164062 198.375 " fill-opacity="1" fill-rule="nonzero"/><path fill="#212529" d="M 293.445312 198.414062 C 290.84375 199.328125 288.757812 200.792969 287.511719 202.550781 C 286.449219 203.980469 285.753906 206.03125 286.121094 206.433594 C 286.230469 206.542969 287.546875 206.761719 289.011719 206.910156 L 291.6875 207.203125 L 292.710938 205.992188 C 294.726562 203.539062 298.902344 202.953125 301.246094 204.785156 C 302.308594 205.628906 303.222656 207.496094 303.222656 208.851562 C 303.222656 209.691406 303.148438 209.691406 297.65625 210.09375 C 291.027344 210.570312 288.574219 211.304688 286.632812 213.464844 C 284.984375 215.296875 284.4375 217.054688 284.617188 219.910156 C 284.800781 223.023438 285.972656 224.78125 288.832031 226.207031 C 290.699219 227.125 291.359375 227.234375 294.25 227.234375 C 296.996094 227.234375 297.875 227.050781 299.558594 226.28125 C 300.695312 225.769531 301.867188 225.035156 302.234375 224.707031 C 302.78125 224.121094 302.894531 224.121094 303.074219 224.632812 C 303.222656 224.964844 303.222656 225.550781 303.113281 225.953125 C 302.929688 226.648438 303.113281 226.683594 306.589844 226.683594 L 310.21875 226.683594 L 310.105469 216.320312 C 309.996094 206.359375 309.960938 205.921875 309.117188 204.089844 C 308.128906 201.855469 306.042969 199.804688 303.625 198.742188 C 301.207031 197.679688 296.007812 197.496094 293.445312 198.414062 Z M 303.222656 216.0625 C 303.222656 217.566406 303.039062 218.078125 302.125 219.140625 C 300.585938 220.863281 298.316406 221.703125 295.679688 221.484375 C 293.957031 221.335938 293.40625 221.117188 292.710938 220.3125 C 291.136719 218.480469 291.980469 216.136719 294.507812 215.1875 C 296.519531 214.453125 297.328125 214.34375 300.585938 214.269531 L 303.222656 214.234375 Z M 303.222656 216.0625 " fill-opacity="1" fill-rule="nonzero"/><path fill="#212529" d="M 188.964844 212.769531 L 188.964844 226.683594 L 196.289062 226.683594 L 196.289062 198.851562 L 188.964844 198.851562 Z M 188.964844 212.769531 " fill-opacity="1" fill-rule="nonzero"/><path fill="#212529" d="M 316.882812 212.769531 L 316.957031 226.683594 L 324.460938 226.683594 L 324.460938 198.851562 L 316.808594 198.851562 Z M 316.882812 212.769531 " fill-opacity="1" fill-rule="nonzero"/><path fill="#212529" d="M 273.484375 219.691406 C 272.425781 220.640625 272.277344 221.007812 272.277344 222.582031 C 272.277344 224.046875 272.460938 224.632812 273.15625 225.367188 C 275.792969 228.1875 280.515625 226.648438 280.515625 222.984375 C 280.515625 220.128906 279.015625 218.628906 276.160156 218.628906 C 275.023438 218.628906 274.363281 218.882812 273.484375 219.691406 Z M 273.484375 219.691406 " fill-opacity="1" fill-rule="nonzero"/><path fill="#212529" d="M 90.269531 117.773438 C 87.488281 118.46875 84.007812 120.335938 65.039062 131.359375 C 42.078125 144.726562 40.722656 145.679688 38.636719 149.742188 C 36.695312 153.589844 36.621094 154.542969 36.621094 180.175781 C 36.621094 194.898438 36.769531 204.675781 37.023438 206.175781 C 37.5 209.179688 39.441406 212.878906 41.675781 215.074219 C 43.652344 217.015625 84.519531 241.332031 87.890625 242.542969 C 90.894531 243.640625 95.433594 243.566406 98.328125 242.394531 C 100.304688 241.589844 118.101562 231.296875 135.789062 220.75 C 144.285156 215.660156 146.191406 213.832031 148.023438 208.703125 C 148.863281 206.359375 148.863281 206.359375 148.972656 182.554688 C 149.121094 156.519531 148.972656 154.359375 147.214844 150.621094 C 145.457031 146.851562 143.078125 144.691406 136.230469 140.625 C 104.882812 122.09375 98.988281 118.726562 97.410156 118.25 C 95.910156 117.808594 91.332031 117.515625 90.269531 117.773438 Z M 96.679688 124.621094 C 98.402344 125.355469 110.265625 132.238281 133.484375 145.933594 C 138.867188 149.15625 140.734375 150.734375 142.125 153.441406 L 143.003906 155.089844 L 143.003906 205.992188 L 142.164062 207.714844 C 141.6875 208.667969 140.660156 210.058594 139.890625 210.828125 C 138.425781 212.292969 98.511719 235.914062 96.019531 236.792969 C 93.898438 237.5625 91.261719 237.414062 89.171875 236.425781 C 85.949219 234.960938 48.488281 212.878906 46.546875 211.339844 C 45.851562 210.828125 44.789062 209.472656 44.164062 208.375 L 43.03125 206.359375 L 43.03125 180.359375 C 43.03125 154.46875 43.03125 154.359375 43.800781 152.894531 C 44.238281 152.085938 45.152344 150.84375 45.851562 150.148438 C 47.167969 148.828125 87.304688 125.132812 89.683594 124.292969 C 91.734375 123.558594 94.410156 123.707031 96.679688 124.621094 Z M 96.679688 124.621094 " fill-opacity="1" fill-rule="nonzero"/><path fill="#212529" d="M 90.269531 117.773438 C 87.488281 118.46875 84.007812 120.335938 65.039062 131.359375 C 42.078125 144.726562 40.722656 145.679688 38.636719 149.742188 C 36.695312 153.589844 36.621094 154.542969 36.621094 180.175781 C 36.621094 194.898438 36.769531 204.675781 37.023438 206.175781 C 37.5 209.179688 39.441406 212.878906 41.675781 215.074219 C 43.652344 217.015625 84.519531 241.332031 87.890625 242.542969 C 90.894531 243.640625 95.433594 243.566406 98.328125 242.394531 C 100.304688 241.589844 118.101562 231.296875 135.789062 220.75 C 144.285156 215.660156 146.191406 213.832031 148.023438 208.703125 C 148.863281 206.359375 148.863281 206.359375 148.972656 182.554688 C 149.121094 156.519531 148.972656 154.359375 147.214844 150.621094 C 145.457031 146.851562 143.078125 144.691406 136.230469 140.625 C 104.882812 122.09375 98.988281 118.726562 97.410156 118.25 C 95.910156 117.808594 91.332031 117.515625 90.269531 117.773438 Z M 96.679688 124.621094 C 98.402344 125.355469 110.265625 132.238281 133.484375 145.933594 C 138.867188 149.15625 140.734375 150.734375 142.125 153.441406 L 143.003906 155.089844 L 143.003906 205.992188 L 142.164062 207.714844 C 141.6875 208.667969 140.660156 210.058594 139.890625 210.828125 C 138.425781 212.292969 98.511719 235.914062 96.019531 236.792969 C 93.898438 237.5625 91.261719 237.414062 89.171875 236.425781 C 85.949219 234.960938 48.488281 212.878906 46.546875 211.339844 C 45.851562 210.828125 44.789062 209.472656 44.164062 208.375 L 43.03125 206.359375 L 43.03125 180.359375 C 43.03125 154.46875 43.03125 154.359375 43.800781 152.894531 C 44.238281 152.085938 45.152344 150.84375 45.851562 150.148438 C 47.167969 148.828125 87.304688 125.132812 89.683594 124.292969 C 91.734375 123.558594 94.410156 123.707031 96.679688 124.621094 Z M 96.679688 124.621094 " fill-opacity="1" fill-rule="nonzero"/><path fill="#212529" d="M 91.625 117.660156 C 91.019531 117.660156 90.535156 117.691406 90.265625 117.753906 C 87.480469 118.453125 84 120.320312 65.03125 131.34375 C 53.550781 138.027344 47.46875 141.605469 44 144.023438 C 40.527344 146.441406 39.664062 147.703125 38.617188 149.734375 C 37.648438 151.660156 37.144531 152.863281 36.882812 156.789062 C 36.621094 160.710938 36.601562 167.359375 36.601562 180.175781 C 36.601562 187.535156 36.640625 193.660156 36.707031 198.132812 C 36.742188 200.371094 36.785156 202.195312 36.835938 203.550781 C 36.882812 204.910156 36.941406 205.800781 37.007812 206.179688 C 37.484375 209.1875 39.425781 212.886719 41.664062 215.089844 C 41.789062 215.210938 42.0625 215.421875 42.472656 215.707031 C 42.882812 215.992188 43.421875 216.351562 44.082031 216.777344 C 45.394531 217.632812 47.164062 218.746094 49.246094 220.03125 C 53.410156 222.605469 58.808594 225.863281 64.25 229.097656 C 69.695312 232.335938 75.179688 235.550781 79.515625 238.027344 C 81.683594 239.269531 83.566406 240.324219 85.007812 241.109375 C 86.453125 241.894531 87.460938 242.40625 87.882812 242.558594 C 90.894531 243.660156 95.4375 243.585938 98.335938 242.414062 C 98.832031 242.210938 100.3125 241.414062 102.535156 240.171875 C 104.761719 238.929688 107.722656 237.238281 111.175781 235.242188 C 118.085938 231.25 126.957031 226.042969 135.800781 220.769531 C 140.050781 218.222656 142.648438 216.492188 144.417969 214.753906 C 146.1875 213.019531 147.125 211.273438 148.039062 208.710938 C 148.460938 207.539062 148.671875 206.949219 148.792969 203.679688 C 148.910156 200.410156 148.9375 194.457031 148.992188 182.554688 C 149.066406 169.539062 149.066406 162.488281 148.828125 158.226562 C 148.589844 153.960938 148.113281 152.484375 147.234375 150.613281 C 145.472656 146.839844 143.089844 144.675781 136.238281 140.609375 C 120.566406 131.34375 111.253906 125.871094 105.664062 122.652344 C 100.074219 119.433594 98.210938 118.472656 97.417969 118.230469 C 96.664062 118.011719 95.144531 117.828125 93.675781 117.734375 C 92.945312 117.683594 92.226562 117.65625 91.625 117.660156 Z M 91.625 117.695312 C 92.226562 117.695312 92.945312 117.722656 93.675781 117.769531 C 95.140625 117.863281 96.660156 118.046875 97.40625 118.265625 C 98.1875 118.503906 100.058594 119.464844 105.648438 122.683594 C 111.238281 125.902344 120.546875 131.375 136.222656 140.640625 C 143.070312 144.707031 145.445312 146.863281 147.199219 150.628906 C 148.078125 152.496094 148.554688 153.964844 148.792969 158.226562 C 149.03125 162.488281 149.03125 169.539062 148.957031 182.554688 C 148.902344 194.457031 148.875 200.410156 148.753906 203.675781 C 148.636719 206.945312 148.425781 207.527344 148.003906 208.699219 C 147.089844 211.257812 146.15625 212.996094 144.394531 214.726562 C 142.628906 216.460938 140.027344 218.191406 135.78125 220.738281 C 126.9375 226.011719 118.066406 231.21875 111.160156 235.210938 C 107.703125 237.207031 104.742188 238.898438 102.519531 240.140625 C 100.296875 241.382812 98.8125 242.179688 98.320312 242.378906 C 95.433594 243.546875 90.894531 243.621094 87.898438 242.523438 C 87.480469 242.375 86.472656 241.863281 85.027344 241.078125 C 83.582031 240.292969 81.703125 239.238281 79.535156 237.996094 C 75.199219 235.515625 69.710938 232.304688 64.269531 229.066406 C 58.828125 225.832031 53.429688 222.570312 49.265625 220 C 47.183594 218.714844 45.414062 217.601562 44.101562 216.75 C 43.445312 216.320312 42.902344 215.960938 42.492188 215.675781 C 42.085938 215.390625 41.808594 215.179688 41.6875 215.0625 C 39.457031 212.867188 37.515625 209.171875 37.042969 206.175781 C 36.976562 205.800781 36.921875 204.90625 36.871094 203.550781 C 36.820312 202.191406 36.777344 200.371094 36.746094 198.132812 C 36.675781 193.660156 36.640625 187.535156 36.640625 180.175781 C 36.640625 167.359375 36.65625 160.710938 36.917969 156.789062 C 37.179688 152.867188 37.679688 151.671875 38.652344 149.75 C 39.695312 147.71875 40.550781 146.472656 44.019531 144.054688 C 47.488281 141.636719 53.566406 138.058594 65.046875 131.375 C 84.019531 120.351562 87.496094 118.484375 90.273438 117.792969 C 90.535156 117.726562 91.023438 117.699219 91.625 117.695312 Z M 93.101562 123.820312 C 91.890625 123.761719 90.707031 123.90625 89.679688 124.273438 C 89.527344 124.328125 89.230469 124.46875 88.808594 124.691406 C 88.382812 124.910156 87.828125 125.210938 87.164062 125.574219 C 85.835938 126.304688 84.066406 127.304688 82.007812 128.484375 C 77.890625 130.847656 72.609375 133.929688 67.359375 137.023438 C 62.113281 140.121094 56.898438 143.234375 52.910156 145.652344 C 50.917969 146.863281 49.234375 147.898438 48.003906 148.675781 C 47.390625 149.0625 46.890625 149.386719 46.523438 149.632812 C 46.15625 149.878906 45.921875 150.046875 45.835938 150.132812 C 45.136719 150.832031 44.222656 152.078125 43.78125 152.882812 C 43.589844 153.25 43.445312 153.535156 43.335938 154.160156 C 43.226562 154.78125 43.15625 155.742188 43.109375 157.464844 C 43.011719 160.914062 43.011719 167.414062 43.011719 180.359375 L 43.011719 206.363281 L 44.148438 208.382812 C 44.773438 209.484375 45.832031 210.839844 46.535156 211.355469 C 46.78125 211.550781 47.578125 212.0625 48.792969 212.816406 C 50.007812 213.570312 51.644531 214.5625 53.5625 215.71875 C 57.398438 218.027344 62.363281 220.976562 67.371094 223.925781 C 72.375 226.875 77.421875 229.820312 81.417969 232.121094 C 85.410156 234.421875 88.355469 236.074219 89.164062 236.441406 C 91.257812 237.433594 93.898438 237.578125 96.027344 236.808594 C 96.34375 236.699219 97.238281 236.234375 98.570312 235.5 C 99.902344 234.765625 101.671875 233.765625 103.730469 232.585938 C 107.84375 230.226562 113.113281 227.144531 118.351562 224.046875 C 123.585938 220.945312 128.792969 217.828125 132.78125 215.394531 C 134.773438 214.175781 136.460938 213.128906 137.699219 212.34375 C 138.316406 211.949219 138.820312 211.621094 139.195312 211.367188 C 139.570312 211.113281 139.8125 210.933594 139.90625 210.839844 C 140.675781 210.070312 141.703125 208.679688 142.179688 207.722656 L 143.023438 205.996094 L 143.023438 155.085938 L 142.144531 153.433594 C 140.75 150.71875 138.878906 149.140625 133.492188 145.917969 C 121.882812 139.070312 113.113281 133.925781 107.03125 130.402344 C 103.988281 128.640625 101.617188 127.28125 99.902344 126.320312 C 98.183594 125.355469 97.121094 124.789062 96.6875 124.605469 C 95.550781 124.144531 94.3125 123.878906 93.101562 123.820312 Z M 93.097656 123.855469 C 94.304688 123.917969 95.539062 124.179688 96.671875 124.636719 C 97.101562 124.820312 98.164062 125.386719 99.882812 126.351562 C 101.601562 127.3125 103.96875 128.671875 107.011719 130.433594 C 113.09375 133.957031 121.867188 139.101562 133.472656 145.949219 C 138.855469 149.171875 140.71875 150.746094 142.109375 153.449219 L 142.988281 155.09375 L 142.988281 205.988281 L 142.144531 207.707031 L 142.148438 207.707031 C 141.671875 208.65625 140.648438 210.046875 139.878906 210.816406 C 139.792969 210.902344 139.550781 211.082031 139.175781 211.335938 C 138.800781 211.589844 138.296875 211.917969 137.679688 212.3125 C 136.441406 213.101562 134.753906 214.144531 132.761719 215.363281 C 128.773438 217.796875 123.570312 220.914062 118.332031 224.015625 C 113.09375 227.113281 107.824219 230.195312 103.710938 232.554688 C 101.652344 233.734375 99.882812 234.734375 98.550781 235.46875 C 97.21875 236.199219 96.320312 236.667969 96.015625 236.773438 C 93.894531 237.542969 91.261719 237.394531 89.179688 236.410156 C 88.378906 236.042969 85.429688 234.386719 81.433594 232.089844 C 77.4375 229.789062 72.394531 226.84375 67.386719 223.894531 C 62.382812 220.945312 57.417969 217.996094 53.582031 215.6875 C 51.664062 214.53125 50.027344 213.539062 48.8125 212.785156 C 47.59375 212.03125 46.796875 211.515625 46.558594 211.324219 L 46.554688 211.324219 C 45.867188 210.816406 44.800781 209.460938 44.179688 208.363281 L 43.046875 206.355469 L 43.046875 180.359375 C 43.046875 167.414062 43.046875 160.914062 43.144531 157.464844 C 43.191406 155.742188 43.265625 154.785156 43.371094 154.164062 C 43.480469 153.546875 43.621094 153.269531 43.816406 152.902344 C 44.253906 152.097656 45.167969 150.851562 45.863281 150.160156 C 45.941406 150.082031 46.175781 149.910156 46.542969 149.664062 C 46.910156 149.417969 47.410156 149.09375 48.023438 148.707031 C 49.25 147.933594 50.9375 146.894531 52.929688 145.683594 C 56.914062 143.265625 62.128906 140.152344 67.378906 137.054688 C 72.625 133.960938 77.910156 130.878906 82.027344 128.519531 C 84.085938 127.335938 85.851562 126.335938 87.179688 125.605469 C 87.84375 125.242188 88.398438 124.941406 88.824219 124.722656 C 89.25 124.503906 89.542969 124.359375 89.691406 124.308594 C 90.714844 123.945312 91.894531 123.796875 93.097656 123.855469 Z M 93.097656 123.855469 " fill-opacity="1" fill-rule="nonzero"/></svg>