<svg width="16" height="16" viewBox="0 0 16 16" fill="none" xmlns="http://www.w3.org/2000/svg">
<g id="arrow-right 1">
<path id="Vector" d="M12.8245 8.42447L9.22448 12.0245C9.11176 12.1372 8.95888 12.2006 8.79952 12.2006C8.64008 12.2006 8.4872 12.1372 8.37448 12.0245C8.26176 11.9118 8.19848 11.7589 8.19848 11.5995C8.19848 11.4401 8.26176 11.2872 8.37448 11.1745L10.95 8.59999H3.6C3.44087 8.59999 3.28826 8.53679 3.17574 8.42423C3.06322 8.31175 3 8.15911 3 7.99998C3 7.84086 3.06322 7.68824 3.17574 7.57572C3.28826 7.46319 3.44087 7.39998 3.6 7.39998H10.95L8.37552 4.82398C8.2628 4.71126 8.19944 4.55838 8.19944 4.39898C8.19944 4.23958 8.2628 4.0867 8.37552 3.97398C8.48824 3.86126 8.64112 3.79794 8.80048 3.79794C8.95992 3.79794 9.1128 3.86126 9.22552 3.97398L12.8255 7.57398C12.8814 7.6298 12.9258 7.69612 12.9561 7.76913C12.9863 7.84214 13.0018 7.92041 13.0018 7.99944C13.0016 8.07847 12.9859 8.15671 12.9555 8.22967C12.9251 8.30255 12.8806 8.36879 12.8245 8.42447Z" fill="white"/>
</g>
</svg>
