<svg width="64" height="64" viewBox="0 0 64 64" xmlns="http://www.w3.org/2000/svg" fill="none">
  <rect x="4" y="4" width="56" height="56" rx="12" fill="#0F172A" />
  <path d="M38.6 19.6c1.5-1.9 2.5-4.5 2.2-7.1-2.1.1-4.7 1.4-6.1 3.2-1.3 1.6-2.4 4.3-2 6.8 2.3.2 4.5-1.2 5.9-2.9ZM44.9 33.2c-.1-5.4 4.4-7.9 4.6-8.1-2.5-3.7-6.5-4.2-7.9-4.3-3.3-.3-6.5 1.9-8.2 1.9-1.7 0-4.3-1.8-7-1.7-3.6.1-6.9 2.1-8.7 5.2-3.7 6.4-.9 15.9 2.7 21.1 1.8 2.7 3.9 5.7 6.7 5.6 2.7-.1 3.7-1.8 6.9-1.8 3.1 0 4.1 1.8 7 1.7 2.9 0 4.7-2.7 6.5-5.4 2.1-3 3-6 3.1-6.1-.1-.1-5.9-2.3-6-8.1Z" fill="#F8FAFC"/>
</svg>
