<svg width="1200" height="760" viewBox="0 0 1200 760" fill="none" xmlns="http://www.w3.org/2000/svg">
  <defs>
    <linearGradient id="bg" x1="48" y1="40" x2="1160" y2="720" gradientUnits="userSpaceOnUse">
      <stop stop-color="#121923"/>
      <stop offset="1" stop-color="#0B0F14"/>
    </linearGradient>
    <linearGradient id="accent" x1="160" y1="160" x2="700" y2="500" gradientUnits="userSpaceOnUse">
      <stop stop-color="#F6C400" stop-opacity="0.8"/>
      <stop offset="1" stop-color="#F6C400" stop-opacity="0.12"/>
    </linearGradient>
    <linearGradient id="line" x1="0" y1="0" x2="0" y2="1">
      <stop stop-color="#F6C400"/>
      <stop offset="1" stop-color="#FFD84D"/>
    </linearGradient>
    <filter id="shadow" x="-20%" y="-20%" width="140%" height="140%">
      <feDropShadow dx="0" dy="12" stdDeviation="18" flood-color="#000000" flood-opacity="0.35"/>
    </filter>
  </defs>

  <rect x="0" y="0" width="1200" height="760" rx="24" fill="url(#bg)"/>
  <rect x="48" y="40" width="1104" height="680" rx="20" stroke="rgba(255,255,255,0.08)" stroke-width="2"/>
  <rect x="72" y="76" width="220" height="608" rx="18" fill="#111823" stroke="rgba(255,255,255,0.07)"/>
  <rect x="324" y="76" width="804" height="120" rx="18" fill="#111823" stroke="rgba(255,255,255,0.07)"/>
  <rect x="324" y="220" width="518" height="280" rx="18" fill="#111823" stroke="rgba(255,255,255,0.07)"/>
  <rect x="866" y="220" width="262" height="280" rx="18" fill="#111823" stroke="rgba(255,255,255,0.07)"/>
  <rect x="324" y="524" width="804" height="160" rx="18" fill="#111823" stroke="rgba(255,255,255,0.07)"/>

  <g opacity="0.95">
    <circle cx="116" cy="118" r="9" fill="#F6C400"/>
    <rect x="136" y="108" width="118" height="20" rx="10" fill="rgba(255,255,255,0.08)"/>
    <rect x="96" y="160" width="172" height="12" rx="6" fill="rgba(255,255,255,0.05)"/>
    <rect x="96" y="190" width="132" height="12" rx="6" fill="rgba(255,255,255,0.05)"/>
    <rect x="96" y="236" width="172" height="42" rx="12" fill="rgba(246,196,0,0.12)" stroke="rgba(246,196,0,0.35)"/>
    <rect x="108" y="251" width="90" height="12" rx="6" fill="#F6C400" fill-opacity="0.85"/>
    <rect x="96" y="300" width="172" height="42" rx="12" fill="rgba(255,255,255,0.03)" stroke="rgba(255,255,255,0.08)"/>
    <rect x="108" y="315" width="112" height="12" rx="6" fill="rgba(255,255,255,0.18)"/>
    <rect x="96" y="364" width="172" height="42" rx="12" fill="rgba(255,255,255,0.03)" stroke="rgba(255,255,255,0.08)"/>
    <rect x="108" y="379" width="98" height="12" rx="6" fill="rgba(255,255,255,0.18)"/>
  </g>

  <g>
    <rect x="348" y="100" width="178" height="72" rx="14" fill="rgba(255,255,255,0.03)" stroke="rgba(255,255,255,0.07)"/>
    <rect x="550" y="100" width="178" height="72" rx="14" fill="rgba(246,196,0,0.12)" stroke="rgba(246,196,0,0.28)"/>
    <rect x="752" y="100" width="178" height="72" rx="14" fill="rgba(255,255,255,0.03)" stroke="rgba(255,255,255,0.07)"/>
    <rect x="954" y="100" width="150" height="72" rx="14" fill="rgba(255,255,255,0.03)" stroke="rgba(255,255,255,0.07)"/>

    <rect x="366" y="118" width="66" height="10" rx="5" fill="rgba(255,255,255,0.14)"/>
    <rect x="366" y="138" width="94" height="16" rx="8" fill="rgba(255,255,255,0.24)"/>
    <rect x="568" y="118" width="94" height="10" rx="5" fill="rgba(246,196,0,0.7)"/>
    <rect x="568" y="138" width="118" height="16" rx="8" fill="#F6C400"/>
    <rect x="770" y="118" width="82" height="10" rx="5" fill="rgba(255,255,255,0.14)"/>
    <rect x="770" y="138" width="100" height="16" rx="8" fill="rgba(255,255,255,0.24)"/>
    <rect x="972" y="118" width="80" height="10" rx="5" fill="rgba(255,255,255,0.14)"/>
    <rect x="972" y="138" width="62" height="16" rx="8" fill="rgba(255,255,255,0.24)"/>
  </g>

  <g filter="url(#shadow)">
    <rect x="348" y="244" width="470" height="232" rx="16" fill="#0E1520" stroke="rgba(255,255,255,0.07)"/>
    <path d="M382 430C425 401 468 411 509 367C548 327 599 324 636 340C684 360 709 337 742 314C769 296 785 301 806 285" stroke="url(#line)" stroke-width="4" stroke-linecap="round"/>
    <path d="M382 430C425 401 468 411 509 367C548 327 599 324 636 340C684 360 709 337 742 314C769 296 785 301 806 285V460H382V430Z" fill="url(#accent)" opacity="0.85"/>
    <g opacity="0.45">
      <path d="M382 300H806" stroke="rgba(255,255,255,0.08)"/>
      <path d="M382 348H806" stroke="rgba(255,255,255,0.08)"/>
      <path d="M382 396H806" stroke="rgba(255,255,255,0.08)"/>
      <path d="M382 444H806" stroke="rgba(255,255,255,0.08)"/>
      <path d="M430 268V460" stroke="rgba(255,255,255,0.05)"/>
      <path d="M526 268V460" stroke="rgba(255,255,255,0.05)"/>
      <path d="M622 268V460" stroke="rgba(255,255,255,0.05)"/>
      <path d="M718 268V460" stroke="rgba(255,255,255,0.05)"/>
    </g>
  </g>

  <g>
    <rect x="890" y="244" width="214" height="232" rx="16" fill="#0E1520" stroke="rgba(255,255,255,0.07)"/>
    <circle cx="997" cy="334" r="72" stroke="rgba(255,255,255,0.08)" stroke-width="16"/>
    <path d="M997 262A72 72 0 1 1 940 378" stroke="#F6C400" stroke-width="16" stroke-linecap="round"/>
    <text x="997" y="342" text-anchor="middle" fill="#E8EEF6" font-family="Segoe UI, Arial, sans-serif" font-size="28" font-weight="700">82%</text>
    <text x="997" y="370" text-anchor="middle" fill="#9AA7B6" font-family="Segoe UI, Arial, sans-serif" font-size="12">Conciliado</text>
  </g>

  <g>
    <rect x="348" y="548" width="780" height="112" rx="16" fill="#0E1520" stroke="rgba(255,255,255,0.07)"/>
    <rect x="372" y="574" width="210" height="16" rx="8" fill="rgba(255,255,255,0.12)"/>
    <rect x="372" y="605" width="732" height="9" rx="4.5" fill="rgba(255,255,255,0.05)"/>
    <rect x="372" y="605" width="538" height="9" rx="4.5" fill="#F6C400" fill-opacity="0.85"/>

    <rect x="372" y="630" width="124" height="8" rx="4" fill="rgba(255,255,255,0.09)"/>
    <rect x="516" y="630" width="92" height="8" rx="4" fill="rgba(255,255,255,0.09)"/>
    <rect x="628" y="630" width="140" height="8" rx="4" fill="rgba(255,255,255,0.09)"/>
    <rect x="788" y="630" width="96" height="8" rx="4" fill="rgba(255,255,255,0.09)"/>
    <rect x="904" y="630" width="76" height="8" rx="4" fill="rgba(255,255,255,0.09)"/>
    <rect x="1000" y="624" width="104" height="20" rx="10" fill="rgba(246,196,0,0.14)" stroke="rgba(246,196,0,0.35)"/>
  </g>
</svg>
