<svg width="64" height="64" viewBox="0 0 64 64" xmlns="http://www.w3.org/2000/svg" fill="none">
  <circle cx="32" cy="32" r="30" fill="#F8FAFC" stroke="#E2E8F0" stroke-width="2"/>
  <path d="M48.4 32.3c0-.94-.08-1.62-.24-2.32H32.6v4.21h8.99c-.18 1.32-.96 3.31-2.76 4.64l-.03.22 4.01 3.1.28.03c2.58-2.39 4.1-5.91 4.1-9.88Z" fill="#4285F4"/>
  <path d="M32.6 48c3.71 0 6.82-1.23 9.1-3.32l-4.34-3.35c-1.16.81-2.71 1.37-4.76 1.37-3.63 0-6.71-2.38-7.81-5.67l-.16.01-4.24 3.28-.06.15C23.6 44.95 27.77 48 32.6 48Z" fill="#34A853"/>
  <path d="M24.79 36.03c-.29-.9-.46-1.87-.46-2.86 0-.99.17-1.96.45-2.86l-.01-.19-4.29-3.32-.14.07C19.47 29.34 18.8 30.92 18.8 32.69c0 1.77.67 3.35 1.53 4.82l4.46-3.48Z" fill="#FBBC05"/>
  <path d="M32.6 23.6c2.58 0 4.32 1.12 5.31 2.06l3.88-3.78C39.38 19.3 36.31 18 32.6 18c-4.83 0-9 3.05-10.75 7.22l4.48 3.49c1.1-3.29 4.18-5.67 7.81-5.67Z" fill="#EA4335"/>
</svg>
